<svg xmlns="http://www.w3.org/2000/svg" viewBox="0 0 500 500"><g id="freepik--Floor--inject-244"><ellipse cx="250" cy="355.79" rx="218.42" ry="126.11" style="fill:#f5f5f5"></ellipse></g><g id="freepik--Shadows--inject-244"><polygon points="109.89 386.75 56.67 356.03 109.89 325.3 163.11 356.03 109.89 386.75" style="fill:#e0e0e0"></polygon><polygon points="156.45 394.26 116.92 371.45 156.45 348.63 195.97 371.45 156.45 394.26" style="fill:#e0e0e0"></polygon><ellipse cx="244.56" cy="421.03" rx="58.04" ry="33.51" style="fill:#e0e0e0"></ellipse><polygon points="406.6 401.21 181.12 271.42 211.39 253.95 436.86 383.74 406.6 401.21" style="fill:#e0e0e0"></polygon></g><g id="freepik--Plant--inject-244"><path d="M405.13,365.55l13.56,7.88s-6.84-21.84-3-43.81c1.43-8.29,4.44-12.41,5.51-14.62s9.24-15.91,2-22.23-24.08,6.25-23.32,40.08A131.63,131.63,0,0,0,405.13,365.55Z" style="fill:#0CC0A1"></path><path d="M405.13,365.55l13.56,7.88s-6.84-21.84-3-43.81c1.43-8.29,4.44-12.41,5.51-14.62s9.24-15.91,2-22.23-24.08,6.25-23.32,40.08A131.63,131.63,0,0,0,405.13,365.55Z" style="opacity:0.30000000000000004"></path><path d="M411.43,369.71a.5.5,0,0,1-.46-.33c-.05-.14-5.17-14.35-4.9-37.16S418.38,297.09,418.5,297a.49.49,0,1,1,.69.7c-.12.11-11.87,12.07-12.13,34.56s4.79,36.68,4.84,36.81a.49.49,0,0,1-.3.63A.33.33,0,0,1,411.43,369.71Z" style="fill:#fff"></path><path d="M409,367.59l22.4,13.18s10.25-1.52,9.47-11.17-4.94-11.93.25-16.17,6.53-4.52,6.28-8.68-3.05-6-4.36-7.62-5-5.1-2.41-10.11,6.08-9.86.89-12.16c-3.1-1.37-8.31.35-11.77,4s-6.3,6.3-9.58,7.15-10.1.92-9.87,6.56,1.7,7.59.33,10.1C408,347.4,397,349.94,409,367.59Z" style="fill:#0CC0A1"></path><path d="M418.07,373.45a.5.5,0,0,1-.49-.45c0-.34-2.46-33.67,20.7-55.56a.49.49,0,0,1,.67.71c-22.81,21.56-20.42,54.44-20.39,54.77a.5.5,0,0,1-.45.53Z" style="fill:#fff"></path><path d="M422.08,344.83a.48.48,0,0,1-.48-.45A19.18,19.18,0,0,0,414.74,331a.48.48,0,0,1-.11-.68.49.49,0,0,1,.68-.12,19.77,19.77,0,0,1,7.26,14.13.49.49,0,0,1-.45.53Z" style="fill:#fff"></path><path d="M420.43,350.53a.48.48,0,0,1-.33-.13.49.49,0,0,1,0-.69c.24-.27,6-6.53,19.47-4.69a.49.49,0,0,1,.42.55.48.48,0,0,1-.55.42c-12.88-1.77-18.56,4.32-18.61,4.38A.52.52,0,0,1,420.43,350.53Z" style="fill:#fff"></path></g><g id="freepik--Envelope--inject-244"><path d="M412,196.26,305.5,23.21A10.1,10.1,0,0,0,292,19.65L196.85,72Z" style="fill:#0CC0A1"></path><path d="M412,196.26,196.85,72V259.33a17.93,17.93,0,0,0,9,15.54L397,385.22A10.06,10.06,0,0,0,412,376.5Z" style="fill:#0CC0A1"></path><g style="opacity:0.30000000000000004"><path d="M412,196.26,305.5,23.21A10.1,10.1,0,0,0,292,19.65L196.85,72Z" style="fill:#fff"></path><path d="M412,196.26,196.85,72V259.33a17.93,17.93,0,0,0,9,15.54L397,385.22A10.06,10.06,0,0,0,412,376.5Z" style="fill:#fff"></path></g><path d="M407,198.28,300.44,25.22A10.1,10.1,0,0,0,287,21.66L191.79,74Z" style="fill:#0CC0A1"></path><path d="M407,198.28,300.44,25.22A10.1,10.1,0,0,0,287,21.66L191.79,74Z" style="fill:#fff;opacity:0.5"></path><path d="M407,198.28,191.79,74V261.34a18,18,0,0,0,9,15.55L391.89,387.23a10.07,10.07,0,0,0,15.1-8.71Z" style="fill:#0CC0A1"></path><path d="M407,198.28,191.79,74V261.34a18,18,0,0,0,9,15.55L391.89,387.23a10.07,10.07,0,0,0,15.1-8.71Z" style="fill:#fff;opacity:0.5"></path><path d="M200.77,276.89,391.89,387.23a9.9,9.9,0,0,0,9.73.16L287.55,215.64l-95.76,45.7A18,18,0,0,0,200.77,276.89Z" style="fill:#0CC0A1"></path><path d="M200.77,276.89,391.89,387.23a9.9,9.9,0,0,0,9.73.16L287.55,215.64l-95.76,45.7A18,18,0,0,0,200.77,276.89Z" style="fill:#fff;opacity:0.7000000000000001"></path><polygon points="191.79 74.03 284.97 232.87 406.99 198.28 191.79 74.03" style="fill:#0CC0A1"></polygon><polygon points="191.79 74.03 284.97 232.87 406.99 198.28 191.79 74.03" style="fill:#fff;opacity:0.30000000000000004"></polygon><polygon points="383.38 129.78 383.38 204.97 284.97 232.86 215.96 115.22 215.96 33.11 383.38 129.78" style="fill:#f0f0f0"></polygon></g><g id="freepik--Gifts--inject-244"><polygon points="109.89 381.11 68 356.92 68 299.49 109.89 323.68 109.89 381.11" style="fill:#0CC0A1"></polygon><polygon points="109.89 381.11 109.89 323.68 151.78 299.49 151.78 356.92 109.89 381.11" style="fill:#0CC0A1"></polygon><polygon points="109.89 381.11 68 356.92 68 299.49 109.89 323.68 109.89 381.11" style="opacity:0.5"></polygon><polygon points="109.89 381.11 109.89 323.68 151.78 299.49 151.78 356.92 109.89 381.11" style="opacity:0.7000000000000001"></polygon><polygon points="109.89 321.34 64.75 295.27 109.89 269.21 155.03 295.27 109.89 321.34" style="fill:#0CC0A1"></polygon><polygon points="109.89 321.34 64.75 295.27 109.89 269.21 155.03 295.27 109.89 321.34" style="opacity:0.1"></polygon><polygon points="84.38 283.94 129.52 310 135.4 306.61 90.26 280.54 84.38 283.94" style="fill:#0CC0A1"></polygon><polygon points="84.38 283.94 129.52 310 135.4 306.61 90.26 280.54 84.38 283.94" style="fill:#fff;opacity:0.30000000000000004"></polygon><polygon points="109.89 330.35 64.75 304.29 64.75 295.27 109.89 321.34 109.89 330.35" style="fill:#0CC0A1"></polygon><polygon points="109.89 330.35 109.89 321.34 155.03 295.27 155.03 304.29 109.89 330.35" style="fill:#0CC0A1"></polygon><polygon points="109.89 330.35 64.75 304.29 64.75 295.27 109.89 321.34 109.89 330.35" style="opacity:0.30000000000000004"></polygon><polygon points="109.89 330.35 109.89 321.34 155.03 295.27 155.03 304.29 109.89 330.35" style="opacity:0.5"></polygon><polygon points="90.26 369.81 84.38 366.44 84.38 306.61 90.26 310 90.26 369.81" style="fill:#0CC0A1"></polygon><polygon points="129.52 369.81 135.4 366.44 135.4 306.61 129.52 310 129.52 369.81" style="fill:#0CC0A1"></polygon><polygon points="90.26 369.81 84.38 366.44 84.38 306.61 90.26 310 90.26 369.81" style="opacity:0.2"></polygon><polygon points="129.52 369.81 135.4 366.44 135.4 306.61 129.52 310 129.52 369.81" style="opacity:0.4"></polygon><polygon points="135.4 283.94 90.26 310 84.38 306.61 129.52 280.54 135.4 283.94" style="fill:#0CC0A1"></polygon><polygon points="135.4 283.94 90.26 310 84.38 306.61 129.52 280.54 135.4 283.94" style="fill:#fff;opacity:0.30000000000000004"></polygon><polygon points="156.45 389.59 125.84 371.92 125.84 329.96 156.45 347.63 156.45 389.59" style="fill:#0CC0A1"></polygon><polygon points="156.45 389.59 156.45 347.63 187.05 329.96 187.05 371.92 156.45 389.59" style="fill:#0CC0A1"></polygon><polygon points="156.45 389.59 125.84 371.92 125.84 329.96 156.45 347.63 156.45 389.59" style="opacity:0.5"></polygon><polygon points="156.45 389.59 156.45 347.63 187.05 329.96 187.05 371.92 156.45 389.59" style="opacity:0.7000000000000001"></polygon><polygon points="156.45 345.92 123.46 326.88 156.45 307.84 189.43 326.88 156.45 345.92" style="fill:#0CC0A1"></polygon><polygon points="156.45 345.92 123.46 326.88 156.45 307.84 189.43 326.88 156.45 345.92" style="opacity:0.1"></polygon><polygon points="137.81 318.6 170.79 337.64 175.09 335.16 142.1 316.12 137.81 318.6" style="fill:#0CC0A1"></polygon><polygon points="137.81 318.6 170.79 337.64 175.09 335.16 142.1 316.12 137.81 318.6" style="fill:#fff;opacity:0.30000000000000004"></polygon><polygon points="156.45 352.51 123.46 333.46 123.46 326.88 156.45 345.92 156.45 352.51" style="fill:#0CC0A1"></polygon><polygon points="156.45 352.51 156.45 345.92 189.43 326.88 189.43 333.46 156.45 352.51" style="fill:#0CC0A1"></polygon><polygon points="156.45 352.51 123.46 333.46 123.46 326.88 156.45 345.92 156.45 352.51" style="opacity:0.30000000000000004"></polygon><polygon points="156.45 352.51 156.45 345.92 189.43 326.88 189.43 333.46 156.45 352.51" style="opacity:0.5"></polygon><polygon points="142.1 381.33 137.81 378.87 137.81 335.16 142.1 337.64 142.1 381.33" style="fill:#0CC0A1"></polygon><polygon points="170.79 381.33 175.09 378.87 175.09 335.16 170.79 337.64 170.79 381.33" style="fill:#0CC0A1"></polygon><polygon points="175.09 318.6 142.1 337.64 137.81 335.16 170.79 316.12 175.09 318.6" style="fill:#0CC0A1"></polygon><polygon points="175.09 318.6 142.1 337.64 137.81 335.16 170.79 316.12 175.09 318.6" style="fill:#fff;opacity:0.30000000000000004"></polygon></g><g id="freepik--Character--inject-244"><path d="M190.32,178.82l18,30.49,20.46-10.95a34.59,34.59,0,0,1,12.93-3.94h0L229.1,219.69l-20.16,9.83a9.47,9.47,0,0,1-11.47-2.4c-2.28-2.77-4.8-7.3-7.15-14.64-6.69-20.92-9.81-31.84-9.81-31.84l3.8-5.87Z" style="fill:#ffa8a7"></path><path d="M236.45,383.06c.06-.49.11-1,.17-1.41,1-8.21,6.82-35,6-47l17.77-67.59-29.23-4.91s-12,43.34-13.48,67c-.81,13,.23,35.93,1.32,53.9A25.08,25.08,0,0,0,236.45,383.06Z" style="fill:#455a64"></path><path d="M226.46,416.13l8-11.77s1-12.95,1.95-21.3a25.08,25.08,0,0,1-17.45.05c.9,14.69,1.83,26.09,1.83,26.09Z" style="fill:#ffa8a7"></path><path d="M240.81,263.79l-4.84.56c-4,18,8.54,26.37,8.54,26.37s-8.65,27.71-12.52,48.09c-1.88,9.91,2.71,15.64,8.62,18.82,1.34-8.61,2.4-17.37,2-23l17.77-67.59Z" style="fill:#37474f"></path><path d="M234.73,406.31a11.77,11.77,0,0,0-4.81,6,7.57,7.57,0,0,1-3.46,3.81s.81-3.52-.61-4.61-6.42-5-6.95.53c-.17,1.73-.33,3.46-.33,3.46s-6.64,7.2-9.87,8.77-12.41,1.37-10.16,9.75,18.05,4.31,23.24-.23,17.94-3.54,17.76-9.6S235.13,411.17,234.73,406.31Z" style="fill:#263238"></path><path d="M234.5,404.36a11.79,11.79,0,0,0-4.83,6.05,7.66,7.66,0,0,1-3.5,3.84s.82-3.54-.61-4.65-6.46-5-7,.54l-.33,3.49s-6.68,7.24-9.93,8.82-12.5,1.38-10.23,9.82,18.17,4.34,23.4-.23,18.06-3.57,17.87-9.67S234.91,409.25,234.5,404.36Z" style="fill:#37474f"></path><path d="M223.43,420a.48.48,0,0,1-.45-.34,8.26,8.26,0,0,0-4.89-5.55.47.47,0,0,1-.32-.6.48.48,0,0,1,.6-.31,9.17,9.17,0,0,1,5.52,6.17.47.47,0,0,1-.31.6Z" style="fill:#f0f0f0"></path><path d="M220.54,422.69a.47.47,0,0,1-.46-.34,8.23,8.23,0,0,0-4.89-5.54.49.49,0,0,1-.32-.6.48.48,0,0,1,.6-.32,9.15,9.15,0,0,1,5.52,6.18.48.48,0,0,1-.31.6Z" style="fill:#f0f0f0"></path><path d="M217.68,425.57a.49.49,0,0,1-.46-.34,8.18,8.18,0,0,0-4.89-5.54.48.48,0,0,1-.31-.6.48.48,0,0,1,.6-.32,9.18,9.18,0,0,1,5.52,6.18.48.48,0,0,1-.32.6Z" style="fill:#f0f0f0"></path><path d="M208.3,422.45c-3.25,1.58-12.5,1.38-10.23,9.82,1.47,5.44,8.6,5.67,14.88,3.92a18.5,18.5,0,0,0-.33-7.48C211.35,424,208.3,422.45,208.3,422.45Z" style="fill:#fafafa"></path><path d="M298.3,345.38a11.72,11.72,0,0,0,4.55,6.2,7.63,7.63,0,0,1,2.78,4.34s-3.19-1.7-4.62-.61-6.45,4.91-1.28,6.85l3.25,1.22s5.22,8.27,5.9,11.8-1.9,12.34,6.78,12.34,8.85-16.31,5.82-22.5,1.24-18.24-4.66-19.64S303.09,346.25,298.3,345.38Z" style="fill:#263238"></path><path d="M284.87,342.66c-1.73-.46-3.52-1-5.32-1.57a123.86,123.86,0,0,0-17.4-4.23s13.66-33.46,16.66-51.21-4.09-29.77-4.09-29.77l-39.45,7c-3,18.16,12.27,27.45,12.27,27.45-.6-.15-8.73,26.6-11.88,47.11s14.86,21.17,23.49,21c4.12-.06,14.69-.07,24.6-.05C287,351.17,285.93,345.6,284.87,342.66Z" style="fill:#455a64"></path><path d="M297,345.19a116.53,116.53,0,0,1-12.11-2.53c1.06,2.94,2.08,8.51-1.12,15.72l20.87.05C304.62,348.19,297,345.19,297,345.19Z" style="fill:#ffa8a7"></path><path d="M296.35,345.09a11.85,11.85,0,0,0,4.59,6.24,7.71,7.71,0,0,1,2.8,4.37s-3.21-1.71-4.65-.61-6.5,4.94-1.3,6.89l3.28,1.23s5.26,8.33,5.94,11.88-1.91,12.43,6.83,12.43,8.91-16.42,5.85-22.65,1.25-18.37-4.69-19.78S301.18,346,296.35,345.09Z" style="fill:#37474f"></path><path d="M301.07,363.69a.45.45,0,0,1-.25-.07.47.47,0,0,1-.15-.66,9.13,9.13,0,0,1,7.39-3.73.47.47,0,0,1,.5.46.48.48,0,0,1-.46.5,8.19,8.19,0,0,0-6.62,3.28A.49.49,0,0,1,301.07,363.69Z" style="fill:#f0f0f0"></path><path d="M303,367.2a.5.5,0,0,1-.26-.08.48.48,0,0,1-.15-.66,9.19,9.19,0,0,1,7.4-3.73h0a.48.48,0,0,1,.48.47.48.48,0,0,1-.46.49,8.34,8.34,0,0,0-6.63,3.28A.46.46,0,0,1,303,367.2Z" style="fill:#f0f0f0"></path><path d="M305,370.7a.47.47,0,0,1-.41-.73,9.16,9.16,0,0,1,7.4-3.73.47.47,0,0,1,.5.46.49.49,0,0,1-.46.5,8.25,8.25,0,0,0-6.63,3.28A.47.47,0,0,1,305,370.7Z" style="fill:#f0f0f0"></path><path d="M307,375.09c.69,3.55-1.91,12.43,6.83,12.43,5.64,0,7.7-6.83,7.64-13.35a18.3,18.3,0,0,0-7.3-1.63C309.27,372.54,307,375.09,307,375.09Z" style="fill:#fafafa"></path><path d="M277,151.5s.18-9.11,2.73-9.29.7,6.28.7,6.28,2.66-1.77,3.67-.18-4.92,4.19-4.92,4.19Z" style="fill:#263238"></path><path d="M223.62,169.35s1.81,15.09,24.71,4.9c0,0-21.73,40.07,17.24,40.07,17.11,0,28.67-8.37,26.35-22.48,0,0,9.58-.21,10-7.89,0,0-11.73,5.13-16.83-6.47s1.9-23.07-6.79-27.71c0,0-4.85-15.41-34.36-7.19a9.31,9.31,0,0,0-8.87-.91c-5.21,2-6.54,11.19-5.21,18.15S229.75,172.28,223.62,169.35Z" style="fill:#263238"></path><path d="M271.22,197.49l4.63,1.26v30.59l-4.63,14.75a125.47,125.47,0,0,1,5.18,17.48,45.56,45.56,0,0,1-23.67,6.82c-13.74,0-21.57-6.22-21.57-6.22l-1.74-20.36s-10.19-6.51-5.19-19.51,17.51-27.88,17.51-27.88h4.5S256.67,200.7,271.22,197.49Z" style="fill:#0CC0A1"></path><path d="M271.22,197.49l4.63,1.26v30.59l-4.63,14.75a125.47,125.47,0,0,1,5.18,17.48,45.56,45.56,0,0,1-23.67,6.82c-13.74,0-21.57-6.22-21.57-6.22l-1.74-20.36s-10.19-6.51-5.19-19.51,17.51-27.88,17.51-27.88h4.5S256.67,200.7,271.22,197.49Z" style="opacity:0.6000000000000001"></path><path d="M264.35,195.72l6.87,1.77s-7.13,4.37-9.8,18.51a3.24,3.24,0,0,1-4.09,2.51l-18.46-5.43A3.23,3.23,0,0,1,237,208.4c2.28-4.06,6.15-10.59,9.28-14h6.15Z" style="fill:#ffa8a7"></path><polygon points="264.35 195.72 248.33 194.52 248.33 174.25 264.35 174.25 264.35 195.72" style="fill:#ffa8a7"></polygon><path d="M248.33,193.64a25.77,25.77,0,0,0,14.72-14v-5.39H248.33Z" style="fill:#f28f8f"></path><path d="M244.59,148s-14.65.86-12.84,25.92c.84,11.58,3.55,17.58,12.47,17.14,10.11-.49,24.46-7.44,23.52-27.27S244.59,148,244.59,148Z" style="fill:#ffa8a7"></path><path d="M264.35,174.25s-4,1.06-4-4.7c0,0-17.85-1.21-21.79-18.92,0,0,1.76-5.31,12.9-5.31s20.52,9.86,17.61,23.41Z" style="fill:#263238"></path><polygon points="242.49 168.87 242.49 177.48 237.45 175.94 242.49 168.87" style="fill:#f28f8f"></polygon><circle cx="248.33" cy="169.78" r="1.76" style="fill:#263238"></circle><path d="M238.54,168.56a1.76,1.76,0,1,1-1.76-1.75A1.76,1.76,0,0,1,238.54,168.56Z" style="fill:#263238"></path><path d="M234.64,164.91l3.44-2s-1.32-1.37-2.63-.55A2.41,2.41,0,0,0,234.64,164.91Z" style="fill:#263238"></path><path d="M242.93,180.34a9,9,0,0,0,5.65-1.52s.38,3-2.11,3.55S242.93,180.34,242.93,180.34Z" style="fill:#f28f8f"></path><path d="M262.93,174.9a9.66,9.66,0,0,1,.79-4.25c.67-1.49,1.85-3,3.9-3.05,4.5-.13,5.11,4.21,5.05,5.75-.16,4.05-3.44,8.43-9.55,8.6Z" style="fill:#ffa8a7"></path><path d="M274.32,198.33s-8.55,7.63-4.59,18.56,12,24.51,14.27,29.36c0,0-19.18,2.18-24,2.66l2.73,12.57s27.31.55,33.18-1.61,8.6-7.34,5.53-15.4c-2.3-6-12.31-27.75-17.15-38.2a14,14,0,0,0-8.65-7.52Z" style="fill:#ffa8a7"></path><path d="M128.81,152.94v92.18a10.17,10.17,0,0,0,5.09,8.81l114.25,65.84a4.58,4.58,0,0,0,6.86-4V223.74a12.79,12.79,0,0,0-6.4-11.08L136.88,148.28A5.38,5.38,0,0,0,128.81,152.94Z" style="fill:#0CC0A1"></path><path d="M128.81,152.94v92.18a10.17,10.17,0,0,0,5.09,8.81l114.25,65.84a4.58,4.58,0,0,0,6.86-4V223.74a12.79,12.79,0,0,0-6.4-11.08L136.88,148.28A5.38,5.38,0,0,0,128.81,152.94Z" style="opacity:0.30000000000000004"></path><path d="M126.32,153.87v92.18a10.18,10.18,0,0,0,5.08,8.8l114.26,65.84a4.57,4.57,0,0,0,6.86-4V224.66a12.8,12.8,0,0,0-6.4-11.08L134.39,149.2A5.38,5.38,0,0,0,126.32,153.87Z" style="fill:#0CC0A1"></path><polygon points="170.27 169.88 172.44 168.77 176.83 171.3 174.89 172.54 170.27 169.88" style="fill:#0CC0A1"></polygon><polygon points="170.27 277.25 174.89 279.91 174.89 172.54 170.27 169.88 170.27 277.25" style="fill:#0CC0A1"></polygon><polygon points="170.27 277.25 174.89 279.91 174.89 172.54 170.27 169.88 170.27 277.25" style="fill:#fff;opacity:0.4"></polygon><path d="M192.27,180.19l-4.61-2.66s-.89,1.32-1.54,7.78c-.54,5.39-20.12-6-11.88-16.35C179.43,162.47,195,175,192.27,180.19Z" style="fill:#ffa8a7"></path><path d="M260,248.91a67.85,67.85,0,0,1-7.49,0c-1.46-.27-6.15-4.82-7.4-5s-4.44,1.83-2,9.47,6,11.11,11.56,10.29,8-2.18,8-2.18Z" style="fill:#ffa8a7"></path><path d="M260,248.91a45.36,45.36,0,0,0-5-3.46V251Z" style="fill:#ffa8a7"></path><polygon points="126.32 202.11 252.52 274.97 252.52 269.14 126.32 196.28 126.32 202.11" style="fill:#0CC0A1"></polygon><polygon points="126.32 202.11 252.52 274.97 252.52 269.14 126.32 196.28 126.32 202.11" style="fill:#fff;opacity:0.4"></polygon><path d="M171.76,222.71s-5.24-17.69-1.16-19.09c3.29-1.13,6.63,1.88,5.43,8.45a120.31,120.31,0,0,0-1.46,12.75h0a2.24,2.24,0,0,0,3.24-1.18c2-5.53,6.41-14.17,3.78-20.77-1.87-4.7-9.76-11.06-15.67-8.48s-3.71,15.42,2.62,27.92C168.54,222.31,169.71,225.13,171.76,222.71Z" style="fill:#0CC0A1"></path><path d="M171.76,222.71s-5.24-17.69-1.16-19.09c3.29-1.13,6.63,1.88,5.43,8.45a120.31,120.31,0,0,0-1.46,12.75h0a2.24,2.24,0,0,0,3.24-1.18c2-5.53,6.41-14.17,3.78-20.77-1.87-4.7-9.76-11.06-15.67-8.48s-3.71,15.42,2.62,27.92C168.54,222.31,169.71,225.13,171.76,222.71Z" style="fill:#fff;opacity:0.6000000000000001"></path><path d="M173.11,231.1s5.24,17.69,1.16,19.09c-3.29,1.13-6.63-1.88-5.43-8.45A120.31,120.31,0,0,0,170.3,229h0a2.24,2.24,0,0,0-3.24,1.19c-2,5.53-6.41,14.16-3.78,20.76,1.87,4.7,9.76,11.06,15.67,8.48s3.71-15.42-2.62-27.92C176.33,231.5,175.16,228.68,173.11,231.1Z" style="fill:#0CC0A1"></path><path d="M173.11,231.1s5.24,17.69,1.16,19.09c-3.29,1.13-6.63-1.88-5.43-8.45A120.31,120.31,0,0,0,170.3,229h0a2.24,2.24,0,0,0-3.24,1.19c-2,5.53-6.41,14.16-3.78,20.76,1.87,4.7,9.76,11.06,15.67,8.48s3.71-15.42-2.62-27.92C176.33,231.5,175.16,228.68,173.11,231.1Z" style="fill:#fff;opacity:0.6000000000000001"></path><path d="M175.1,235.07l-5.94-3.43a5.29,5.29,0,0,1-2.65-4.58V220.9a2.77,2.77,0,0,1,4.16-2.4l5.08,2.93a5.81,5.81,0,0,1,2.9,5V233A2.37,2.37,0,0,1,175.1,235.07Z" style="fill:#0CC0A1"></path><path d="M175.1,235.07l-5.94-3.43a5.29,5.29,0,0,1-2.65-4.58V220.9a2.77,2.77,0,0,1,4.16-2.4l5.08,2.93a5.81,5.81,0,0,1,2.9,5V233A2.37,2.37,0,0,1,175.1,235.07Z" style="fill:#fff;opacity:0.6000000000000001"></path><polygon points="252.52 274.97 255.01 273.49 255.01 267.48 252.52 269.14 252.52 274.97" style="fill:#0CC0A1"></polygon></g></svg>